<?xml version="1.0" standalone="no"?>
<!DOCTYPE svg PUBLIC "-//W3C//DTD SVG 20010904//EN"
 "http://www.w3.org/TR/2001/REC-SVG-20010904/DTD/svg10.dtd">
<svg version="1.0" xmlns="http://www.w3.org/2000/svg"
 width="500.000000pt" height="500.000000pt" viewBox="0 0 500.000000 500.000000"
 preserveAspectRatio="xMidYMid meet">
<metadata>
Created by potrace 1.11, written by Peter Selinger 2001-2013
</metadata>
<g transform="translate(0.000000,500.000000) scale(0.100000,-0.100000)"
fill="#000000" stroke="none">
<path d="M2426 4868 c-16 -23 -251 -358 -523 -745 l-495 -704 -23 -102 c-13
-56 -58 -250 -100 -432 -43 -181 -78 -337 -80 -345 -2 -8 -19 -82 -38 -165
-43 -178 -128 -544 -132 -565 -2 -8 -8 -35 -15 -60 -7 -25 -14 -56 -17 -70 -2
-13 -13 -63 -24 -110 -11 -47 -22 -92 -24 -100 -2 -8 -22 -96 -46 -195 -23
-99 -42 -187 -43 -195 -1 -10 162 -113 454 -288 250 -151 463 -276 473 -279 9
-3 17 -9 17 -14 0 -5 4 -9 9 -9 5 0 141 -79 301 -175 160 -96 296 -175 301
-175 5 0 9 -4 9 -10 0 -5 25 -10 55 -10 46 0 66 6 109 33 28 17 61 37 72 44
149 90 527 321 554 338 53 35 799 488 848 516 49 27 49 15 9 179 -15 58 -49
206 -77 330 -28 124 -62 271 -76 328 -13 57 -26 118 -29 135 -3 18 -12 57 -20
87 -13 53 -68 293 -86 375 -4 22 -10 49 -13 60 -19 83 -58 253 -61 268 -2 10
-6 26 -9 35 -3 9 -8 31 -11 47 -3 17 -34 152 -68 300 l-63 270 -214 299 c-118
165 -350 489 -516 720 l-301 421 -39 2 c-36 3 -41 -1 -68 -39z m39 -546 l0
-477 -81 -140 c-44 -77 -159 -273 -254 -435 -263 -447 -269 -457 -333 -569
l-61 -105 -37 115 c-20 63 -67 209 -104 324 -36 116 -78 247 -93 292 l-26 83
23 30 c20 27 184 260 310 440 25 36 179 256 343 489 164 232 298 428 298 434
0 6 3 7 7 3 5 -4 8 -222 8 -484z m143 370 c37 -53 218 -306 402 -562 183 -256
353 -494 378 -530 25 -36 59 -83 74 -104 15 -21 28 -44 28 -50 0 -6 -21 -76
-46 -156 -25 -80 -47 -149 -48 -155 -1 -5 -9 -30 -16 -55 -7 -25 -15 -49 -16
-55 -9 -34 -123 -398 -126 -400 -3 -3 -507 851 -658 1114 l-55 96 0 482 c-1
265 2 480 6 477 5 -2 39 -48 77 -102z m36 -1184 c82 -139 243 -414 359 -611
l210 -358 -22 -72 c-12 -40 -24 -79 -26 -87 -3 -8 -20 -64 -39 -125 -19 -60
-70 -227 -114 -370 -114 -371 -211 -685 -223 -723 l-11 -32 -288 0 -288 0 -16
48 c-52 165 -101 317 -121 382 -13 41 -42 134 -65 205 -23 72 -54 171 -70 220
-16 50 -60 190 -99 313 l-71 222 201 343 c110 188 273 467 362 619 89 153 164
278 168 278 3 0 72 -114 153 -252z m894 -190 c1 -13 18 -93 37 -178 20 -85 52
-222 70 -305 19 -82 46 -199 60 -260 15 -60 28 -121 31 -135 3 -14 16 -72 30
-130 13 -58 26 -114 28 -125 2 -11 18 -79 35 -152 17 -72 32 -142 35 -155 3
-13 21 -93 41 -178 20 -85 43 -189 52 -230 8 -41 19 -83 24 -92 6 -10 6 -18 2
-18 -4 0 -49 71 -100 158 -50 86 -157 270 -238 407 -81 138 -196 333 -256 436
l-109 185 116 375 c64 205 119 384 121 397 3 12 8 22 12 22 4 0 8 -10 9 -22z
m-1948 -468 c34 -107 71 -224 82 -260 l21 -66 -188 -319 c-103 -176 -196 -335
-207 -354 -103 -180 -303 -518 -311 -526 -7 -7 -8 -7 -4 0 3 6 17 62 31 125
14 63 42 183 61 265 62 264 164 704 169 727 2 13 20 90 40 171 20 82 38 158
40 170 3 12 30 130 60 262 31 132 56 245 57 250 1 12 62 -170 149 -445z m1758
-540 c43 -74 215 -366 380 -648 166 -283 302 -518 302 -523 0 -5 -242 -9 -593
-9 l-594 0 72 233 c40 127 85 273 100 322 15 50 42 137 60 195 18 58 46 150
63 205 89 292 117 374 123 368 4 -5 43 -69 87 -143z m-1588 5 c33 -105 71
-224 188 -590 39 -121 97 -303 129 -405 l59 -185 -589 -3 c-325 -1 -592 -1
-594 2 -2 2 62 115 143 252 81 137 154 263 164 279 197 347 455 774 461 763 4
-7 21 -58 39 -113z m425 -1332 c27 -90 123 -390 201 -632 24 -74 41 -137 39
-139 -2 -2 -33 14 -69 37 -36 22 -67 41 -69 41 -3 0 -150 87 -287 170 -8 5
-49 29 -90 53 -41 25 -268 160 -504 301 l-429 256 590 0 591 0 27 -87z m571
71 c-3 -8 -30 -95 -60 -192 -111 -364 -197 -636 -201 -640 -2 -2 -10 18 -18
45 -8 26 -52 163 -97 303 -92 287 -138 432 -150 473 l-9 27 271 0 c241 0 269
-2 264 -16z m1184 -5 c-244 -148 -733 -447 -760 -464 -81 -53 -614 -374 -616
-372 -2 1 26 97 62 212 36 116 67 217 69 225 2 8 32 106 67 218 l62 202 576 0
575 0 -35 -21z"/>
</g>
</svg>
